<svg xmlns="http://www.w3.org/2000/svg" viewBox="0 0 384 512" width="384" height="512">
  <path fill="#5b3f1b" d="M64 0C28.7 0 0 28.7 0 64V448c0 35.3 28.7 64 64 64H320c35.3 0 64-28.7 64-64V160H256c-17.7 0-32-14.3-32-32V0H64zM256 0V128H384L256 0zM64 224c0-8.8 7.2-16 16-16H304c8.8 0 16 7.2 16 16s-7.2 16-16 16H80c-8.8 0-16-7.2-16-16zm0 64c0-8.8 7.2-16 16-16H304c8.8 0 16 7.2 16 16s-7.2 16-16 16H80c-8.8 0-16-7.2-16-16zm0 64c0-8.8 7.2-16 16-16H304c8.8 0 16 7.2 16 16s-7.2 16-16 16H80c-8.8 0-16-7.2-16-16z"/>
</svg>
